<mxfile host="app.diagrams.net" modified="2023-08-26T07:37:33.812Z" agent="Mozilla/5.0 (Macintosh; Intel Mac OS X 10_15_7) AppleWebKit/537.36 (KHTML, like Gecko) Chrome/116.0.0.0 Safari/537.36" etag="edODMXWGbiA8dvLBEpAs" version="21.3.2" type="github">
  <diagram name="페이지-1" id="Ubigl4BfTGSjSFXbpSqd">
    <mxGraphModel dx="1194" dy="610" grid="1" gridSize="10" guides="1" tooltips="1" connect="1" arrows="1" fold="1" page="1" pageScale="1" pageWidth="827" pageHeight="1169" math="0" shadow="0">
      <root>
        <mxCell id="0" />
        <mxCell id="1" parent="0" />
        <mxCell id="Li0bfwf8Ni7NL60AEftY-6" value="yuran vpc" style="points=[[0,0],[0.25,0],[0.5,0],[0.75,0],[1,0],[1,0.25],[1,0.5],[1,0.75],[1,1],[0.75,1],[0.5,1],[0.25,1],[0,1],[0,0.75],[0,0.5],[0,0.25]];outlineConnect=0;gradientColor=none;html=1;whiteSpace=wrap;fontSize=12;fontStyle=0;container=1;pointerEvents=0;collapsible=0;recursiveResize=0;shape=mxgraph.aws4.group;grIcon=mxgraph.aws4.group_vpc;strokeColor=#248814;fillColor=none;verticalAlign=top;align=left;spacingLeft=30;fontColor=#AAB7B8;dashed=0;" parent="1" vertex="1">
          <mxGeometry x="30" y="30" width="509" height="240" as="geometry" />
        </mxCell>
        <mxCell id="raUuo1lHQiTWlKniR-Hy-3" value="" style="sketch=0;outlineConnect=0;fontColor=#232F3E;gradientColor=none;fillColor=#4D27AA;strokeColor=none;dashed=0;verticalLabelPosition=bottom;verticalAlign=top;align=center;html=1;fontSize=12;fontStyle=0;aspect=fixed;pointerEvents=1;shape=mxgraph.aws4.endpoints;" vertex="1" parent="Li0bfwf8Ni7NL60AEftY-6">
          <mxGeometry x="480" y="93" width="59" height="59" as="geometry" />
        </mxCell>
        <mxCell id="raUuo1lHQiTWlKniR-Hy-2" value="Private subnet" style="points=[[0,0],[0.25,0],[0.5,0],[0.75,0],[1,0],[1,0.25],[1,0.5],[1,0.75],[1,1],[0.75,1],[0.5,1],[0.25,1],[0,1],[0,0.75],[0,0.5],[0,0.25]];outlineConnect=0;gradientColor=none;html=1;whiteSpace=wrap;fontSize=12;fontStyle=0;container=1;pointerEvents=0;collapsible=0;recursiveResize=0;shape=mxgraph.aws4.group;grIcon=mxgraph.aws4.group_security_group;grStroke=0;strokeColor=#147EBA;fillColor=#E6F2F8;verticalAlign=top;align=left;spacingLeft=30;fontColor=#147EBA;dashed=0;" vertex="1" parent="1">
          <mxGeometry x="50" y="60" width="430" height="180" as="geometry" />
        </mxCell>
        <mxCell id="raUuo1lHQiTWlKniR-Hy-5" value="" style="outlineConnect=0;dashed=0;verticalLabelPosition=bottom;verticalAlign=top;align=center;html=1;shape=mxgraph.aws3.ec2;fillColor=#F58534;gradientColor=none;" vertex="1" parent="raUuo1lHQiTWlKniR-Hy-2">
          <mxGeometry x="130" y="51" width="76.5" height="93" as="geometry" />
        </mxCell>
        <mxCell id="raUuo1lHQiTWlKniR-Hy-4" value="" style="html=1;verticalAlign=bottom;labelBackgroundColor=none;endArrow=oval;endFill=0;endSize=8;rounded=0;" edge="1" parent="raUuo1lHQiTWlKniR-Hy-2" target="raUuo1lHQiTWlKniR-Hy-6">
          <mxGeometry width="160" relative="1" as="geometry">
            <mxPoint x="204" y="97" as="sourcePoint" />
            <mxPoint x="364" y="97" as="targetPoint" />
          </mxGeometry>
        </mxCell>
        <mxCell id="raUuo1lHQiTWlKniR-Hy-6" value="" style="sketch=0;outlineConnect=0;fontColor=#232F3E;gradientColor=none;fillColor=#3F8624;strokeColor=none;dashed=0;verticalLabelPosition=bottom;verticalAlign=top;align=center;html=1;fontSize=12;fontStyle=0;aspect=fixed;pointerEvents=1;shape=mxgraph.aws4.bucket;" vertex="1" parent="1">
          <mxGeometry x="650" y="115" width="75" height="78" as="geometry" />
        </mxCell>
      </root>
    </mxGraphModel>
  </diagram>
</mxfile>
